HIERARCHY
ROOT Hips
{
	OFFSET 0.00000 0.00000 0.00000
	CHANNELS 6 Xposition Yposition Zposition Zrotation Yrotation Xrotation 
	JOINT LHipJoint
	{
		OFFSET 0 0 0
		CHANNELS 3 Zrotation Yrotation Xrotation
		JOINT LeftUpLeg
		{
			OFFSET 1.37959 -1.78713 0.86582
			CHANNELS 3 Zrotation Yrotation Xrotation
			JOINT LeftLeg
			{
				OFFSET 2.54611 -6.99539 0.00000
				CHANNELS 3 Zrotation Yrotation Xrotation
				JOINT LeftFoot
				{
					OFFSET 2.59951 -7.14211 0.00000
					CHANNELS 3 Zrotation Yrotation Xrotation
					JOINT LeftToeBase
					{
						OFFSET 0.18493 -0.50810 1.96120
						CHANNELS 3 Zrotation Yrotation Xrotation
						End Site
						{
							OFFSET 0.00000 -0.00000 1.02054
						}
					}
				}
			}
		}
	}
	JOINT RHipJoint
	{
		OFFSET 0 0 0
		CHANNELS 3 Zrotation Yrotation Xrotation
		JOINT RightUpLeg
		{
			OFFSET -1.33564 -1.78713 0.86582
			CHANNELS 3 Zrotation Yrotation Xrotation
			JOINT RightLeg
			{
				OFFSET -2.52705 -6.94302 0.00000
				CHANNELS 3 Zrotation Yrotation Xrotation
				JOINT RightFoot
				{
					OFFSET -2.55964 -7.03257 0.00000
					CHANNELS 3 Zrotation Yrotation Xrotation
					JOINT RightToeBase
					{
						OFFSET -0.25804 -0.70896 2.12109
						CHANNELS 3 Zrotation Yrotation Xrotation
						End Site
						{
							OFFSET -0.00000 -0.00000 1.11821
						}
					}
				}
			}
		}
	}
	JOINT LowerBack
	{
		OFFSET 0 0 0
		CHANNELS 3 Zrotation Yrotation Xrotation
		JOINT Spine
		{
			OFFSET -0.02031 2.24248 -0.18900
			CHANNELS 3 Zrotation Yrotation Xrotation
			JOINT Spine1
			{
				OFFSET 0.08342 2.24689 -0.03799
				CHANNELS 3 Zrotation Yrotation Xrotation
				JOINT Neck
				{
					OFFSET 0 0 0
					CHANNELS 3 Zrotation Yrotation Xrotation
					JOINT Neck1
					{
						OFFSET -0.11607 1.55844 0.24628
						CHANNELS 3 Zrotation Yrotation Xrotation
						JOINT Head
						{
							OFFSET 0.06877 1.60174 -0.17013
							CHANNELS 3 Zrotation Yrotation Xrotation
							End Site
							{
								OFFSET 0.03358 1.61266 -0.08543
							}
						}
					}
				}
				JOINT LeftShoulder
				{
					OFFSET 0 0 0
					CHANNELS 3 Zrotation Yrotation Xrotation
					JOINT LeftArm
					{
						OFFSET 3.47537 0.55866 -0.72348
						CHANNELS 3 Zrotation Yrotation Xrotation
						JOINT LeftForeArm
						{
							OFFSET 5.38154 -0.00000 0.00000
							CHANNELS 3 Zrotation Yrotation Xrotation
							JOINT LeftHand
							{
								OFFSET 3.33312 -0.00000 0.00000
								CHANNELS 3 Zrotation Yrotation Xrotation
								JOINT LeftFingerBase
								{
									OFFSET 0 0 0
									CHANNELS 3 Zrotation Yrotation Xrotation
									JOINT LeftHandIndex1
									{
										OFFSET 0.71079 -0.00000 0.00000
										CHANNELS 3 Zrotation Yrotation Xrotation
										End Site
										{
											OFFSET 0.57306 -0.00000 0.00000
										}
									}
								}
								JOINT LThumb
								{
									OFFSET 0 0 0
									CHANNELS 3 Zrotation Yrotation Xrotation
									End Site
									{
										OFFSET 0.58181 -0.00000 0.58181
									}
								}
							}
						}
					}
				}
				JOINT RightShoulder
				{
					OFFSET 0 0 0
					CHANNELS 3 Zrotation Yrotation Xrotation
					JOINT RightArm
					{
						OFFSET -3.27844 0.90739 -0.35708
						CHANNELS 3 Zrotation Yrotation Xrotation
						JOINT RightForeArm
						{
							OFFSET -5.16954 -0.00000 0.00000
							CHANNELS 3 Zrotation Yrotation Xrotation
							JOINT RightHand
							{
								OFFSET -3.38287 -0.00000 0.00000
								CHANNELS 3 Zrotation Yrotation Xrotation
								JOINT RightFingerBase
								{
									OFFSET 0 0 0
									CHANNELS 3 Zrotation Yrotation Xrotation
									JOINT RightHandIndex1
									{
										OFFSET -0.81797 -0.00000 0.00000
										CHANNELS 3 Zrotation Yrotation Xrotation
										End Site
										{
											OFFSET -0.65947 -0.00000 0.00000
										}
									}
								}
								JOINT RThumb
								{
									OFFSET 0 0 0
									CHANNELS 3 Zrotation Yrotation Xrotation
									End Site
									{
										OFFSET -0.66953 -0.00000 0.66953
									}
								}
							}
						}
					}
				}
			}
		}
	}
}
MOTION
Frames: 14
Frame Time: .0083333
7.4774 17.5494 -15.6232 -0.8965 -2.5445 -2.3089 0.0000 0.0000 0.0000 -15.3620 0.2464 0.7888 0.9802 6.3023 17.6641 0.7188 -0.1025 -15.9894 0.1439 -2.4450 -6.7373 0.0000 0.0000 0.0000 19.3293 -3.3882 -1.0515 -0.9381 -6.1691 17.2759 -0.4193 -6.6394 -16.4443 -0.0001 0.0515 -0.1414 -1.5090 -0.2186 2.4516 3.1154 -0.2598 -1.7641 4.0800 -0.0596 -3.1723 -9.6946 -3.3712 -15.4849 6.8409 -3.7013 17.6728 3.4691 -1.7255 8.3558 -0.0000 0.0000 0.0000 -57.0667 -44.2518 27.9333 94.1739 -59.9341 -63.6139 -0.0000 -0.0000 19.4182 11.4807 39.4137 7.3479 -7.1250 0.0000 -0.0000 -32.5379 67.2658 -18.2051 -0.0000 0.0000 0.0000 48.4025 43.7232 29.4107 -105.8495 59.0292 -73.6813 0.0000 0.0000 9.9362 -9.3456 39.6545 -5.9955 7.1250 -0.0000 -0.0000 13.2707 9.1117 15.5958
7.4816 17.5520 -15.6147 -0.9628 -2.6406 -2.2872 0.0000 0.0000 0.0000 -15.3228 0.1002 0.8698 0.9782 6.2959 17.6454 0.7109 0.0759 -15.9629 0.1301 -2.3248 -6.4043 0.0000 0.0000 0.0000 19.4043 -3.2598 -1.0453 -0.9485 -6.2025 17.3731 -0.4245 -6.7016 -16.5637 -0.0000 0.0141 -0.0387 -1.4010 -0.2299 2.3953 3.1646 -0.2671 -1.8883 4.0713 -0.0621 -3.2686 -9.9064 -3.3392 -15.0380 6.9969 -3.6775 17.5437 3.5611 -1.7202 8.2373 0.0000 0.0000 0.0000 -57.0639 -43.9578 28.1467 94.0990 -59.9364 -63.5490 -0.0000 -0.0000 18.7761 12.6657 38.7859 8.0131 -7.1250 0.0000 -0.0000 -30.3436 67.1064 -16.7739 0.0000 0.0000 0.0000 48.5374 43.5559 29.7292 -105.7411 59.0427 -73.5884 0.0000 0.0000 9.7521 -9.8140 39.6209 -6.2949 7.1250 -0.0000 -0.0000 13.0292 9.1502 15.3048
7.4822 17.5541 -15.6062 -0.8670 -2.7736 -2.3339 0.0000 0.0000 0.0000 -15.4467 0.0511 0.9422 0.9883 6.3276 17.7378 0.7009 0.3014 -15.9327 0.2018 -2.8925 -7.9795 0.0000 0.0000 0.0000 19.3197 -3.0615 -0.8827 -0.9418 -6.1811 17.3107 -0.4133 -6.9107 -16.6100 -0.0000 0.0096 -0.0264 -1.5519 -0.1863 2.2624 3.1808 -0.2139 -1.9076 4.1701 -0.0323 -3.2176 -10.0061 -3.3221 -14.7393 7.1239 -3.6841 17.4833 3.6210 -1.7226 8.1684 -0.0000 -0.0000 0.0000 -57.1461 -44.0301 28.3369 93.4461 -59.9551 -62.9839 -0.0000 -0.0000 18.3627 13.7508 37.5517 8.4830 -7.1250 0.0000 -0.0000 -27.4770 66.3838 -14.6372 -0.0000 -0.0000 0.0000 48.5065 43.5510 29.8316 -105.4837 59.0745 -73.3676 0.0000 0.0000 9.5972 -10.2191 39.4989 -6.5412 7.1250 -0.0000 -0.0000 12.8096 9.0945 15.0240
7.4804 17.5487 -15.5962 -0.9624 -2.9856 -2.4284 0.0000 0.0000 0.0000 -15.3200 0.2356 1.0265 0.9978 6.3569 17.8236 0.7047 0.3948 -16.0108 0.2959 -3.4976 -9.6673 0.0000 0.0000 0.0000 19.4712 -2.8714 -0.6411 -0.9294 -6.1414 17.1952 -0.3959 -7.0696 -16.5372 -0.0013 0.2313 -0.6355 -1.5066 -0.1249 2.2097 3.2405 -0.1280 -1.9360 4.2023 0.0108 -3.2245 -10.0749 -3.3058 -14.3485 7.2147 -3.6968 17.3171 3.6616 -1.7303 8.0471 0.0000 0.0000 0.0000 -57.3777 -44.1013 28.6851 92.7041 -59.9724 -62.3416 -0.0000 -0.0000 18.0371 15.1438 36.0838 9.0567 -7.1250 0.0000 -0.0000 -24.1364 65.4998 -12.2747 0.0000 0.0000 0.0000 48.4385 43.7099 30.0125 -105.1349 59.1165 -73.0683 0.0000 0.0000 9.3057 -10.6563 39.4126 -6.8125 7.1250 -0.0000 -0.0000 12.5769 9.0796 14.7355
7.4824 17.5478 -15.5821 -1.0984 -3.0860 -2.4979 0.0000 0.0000 0.0000 -15.1655 0.3312 1.1377 0.9956 6.3502 17.8038 0.7097 0.3441 -16.0475 0.2486 -3.2081 -8.8586 0.0000 0.0000 0.0000 19.6172 -2.8782 -0.5363 -0.9339 -6.1557 17.2368 -0.4060 -6.9629 -16.5658 -0.0002 0.0873 -0.2398 -1.3536 -0.1298 2.1344 3.3365 -0.1279 -1.8673 4.2143 0.0058 -3.1110 -10.0560 -3.3552 -14.5360 6.9875 -3.7057 17.3519 3.5792 -1.7520 8.0892 -0.0000 -0.0000 0.0000 -57.3651 -44.1062 28.7816 92.5334 -59.9757 -62.1938 -0.0000 -0.0000 17.7755 16.2322 35.0511 9.4922 -7.1250 0.0000 -0.0000 -21.7783 64.8743 -10.7070 -0.0000 -0.0000 0.0000 48.2645 44.0275 30.1183 -104.8344 59.1520 -72.8104 0.0000 0.0000 8.9407 -11.1779 39.4091 -7.1504 7.1250 -0.0000 -0.0000 12.3102 9.1595 14.4232
7.4908 17.5503 -15.5675 -0.8067 -3.0331 -2.5624 0.0000 0.0000 0.0000 -15.5322 0.2647 1.2663 0.9892 6.3301 17.7453 0.7191 0.3378 -16.1503 0.2037 -2.9062 -8.0178 0.0000 0.0000 0.0000 19.2172 -3.0339 -0.5398 -0.9504 -6.2085 17.3906 -0.4312 -6.7138 -16.6567 -0.0008 -0.1831 0.5032 -1.5548 -0.1755 1.9959 3.2643 -0.2000 -1.7725 4.2544 -0.0308 -2.9285 -9.7627 -3.3151 -14.8288 6.6762 -3.6290 17.4306 3.4329 -1.7217 8.1495 0.0000 -0.0000 0.0000 -57.1953 -44.1499 28.7193 92.3596 -59.9790 -62.0433 -0.0000 -0.0000 17.8289 16.4926 34.4242 9.5018 -7.1250 0.0000 -0.0000 -20.8416 64.3720 -9.9846 0.0000 -0.0000 0.0000 48.0400 44.6070 30.1444 -104.1763 59.2269 -72.2451 0.0000 0.0000 8.5751 -11.6592 39.2634 -7.4404 7.1250 -0.0000 -0.0000 12.0467 9.0967 14.0902
7.4966 17.5441 -15.5641 -0.4650 -3.1496 -2.6831 0.0000 0.0000 0.0000 -15.9518 0.3264 1.4366 0.9823 6.3088 17.6831 0.7203 0.5848 -16.2585 0.2630 -3.2993 -9.1130 0.0000 0.0000 0.0000 18.8391 -2.7979 -0.4345 -0.9686 -6.2658 17.5576 -0.4353 -6.7632 -16.7509 -0.0001 0.0487 -0.1338 -1.8593 -0.1771 2.0279 3.1892 -0.2152 -1.7262 4.3495 -0.0341 -2.8969 -9.1343 -3.1591 -14.7463 6.2022 -3.4687 17.3222 3.1857 -1.6504 8.0639 -0.0000 -0.0000 0.0000 -57.1713 -44.2154 28.7421 91.8781 -59.9867 -61.6264 -0.0000 -0.0000 17.9595 16.8225 34.1826 9.6407 -7.1250 0.0000 -0.0000 -20.2312 64.2388 -9.6178 -0.0000 -0.0000 0.0000 47.7176 45.4749 30.2551 -102.7978 59.3720 -71.0598 0.0000 0.0000 8.2034 -12.1926 39.0963 -7.7594 7.1250 -0.0000 -0.0000 11.7529 9.0229 13.7199
7.4959 17.5327 -15.5609 -0.4783 -3.3442 -2.8483 0.0000 0.0000 0.0000 -15.9421 0.5508 1.6576 0.9745 6.2844 17.6120 0.7087 0.7831 -16.2072 0.3500 -3.8011 -10.5178 0.0000 0.0000 0.0000 18.9102 -2.4159 -0.2394 -0.9899 -6.3324 17.7520 -0.4349 -6.9834 -16.9391 -0.0026 0.3305 -0.9081 -1.8649 -0.1485 2.1476 3.2302 -0.1773 -1.6790 4.3944 -0.0149 -2.9192 -10.1411 -3.2753 -15.1590 6.9743 -3.5266 17.8055 3.6139 -1.6674 8.3373 0.0000 0.0000 0.0000 -57.3437 -44.2652 28.9664 91.3278 -59.9933 -61.1499 -0.0000 -0.0000 17.9284 17.7761 34.1197 10.1948 -7.1250 0.0000 -0.0000 -19.0911 64.4397 -9.1450 0.0000 0.0000 0.0000 47.5306 45.6867 30.3865 -102.0967 59.4398 -70.4563 0.0000 0.0000 8.1317 -12.7589 39.0931 -8.1263 7.1250 -0.0000 -0.0000 11.4616 9.1160 13.3821
7.4977 17.5222 -15.5431 -0.6022 -3.2176 -3.0305 0.0000 0.0000 0.0000 -15.7722 0.7990 1.8631 0.9730 6.2796 17.5980 0.7220 0.4554 -16.2271 0.4091 -4.1061 -11.3754 0.0000 0.0000 0.0000 18.9819 -2.7464 -0.1265 -1.0070 -6.3851 17.9060 -0.4521 -6.8534 -17.0333 -0.0023 0.3117 -0.8565 -1.6758 -0.1450 2.1266 3.1881 -0.1670 -1.6833 4.2424 -0.0142 -2.9128 -10.2987 -3.3711 -15.0863 7.1542 -3.6792 18.0958 3.6883 -1.7370 8.4426 0.0000 0.0000 0.0000 -57.6203 -44.3128 29.5368 90.9915 -59.9963 -60.8587 -0.0000 -0.0000 17.9147 18.2297 33.9202 10.4144 -7.1250 0.0000 -0.0000 -18.3833 64.3766 -8.7677 0.0000 0.0000 0.0000 47.7046 44.9513 30.4650 -102.3812 59.4128 -70.7013 0.0000 0.0000 8.5060 -13.2132 39.1638 -8.4343 7.1250 -0.0000 -0.0000 11.2374 9.2633 13.1345
7.5030 17.5161 -15.5294 -0.7401 -3.0875 -3.1544 0.0000 0.0000 0.0000 -15.5892 0.8780 2.0313 0.9781 6.2958 17.6451 0.7564 0.0310 -16.4509 0.3820 -3.9692 -10.9900 0.0000 0.0000 0.0000 19.0456 -3.1577 -0.0539 -1.0099 -6.3941 17.9322 -0.4702 -6.6038 -17.0352 -0.0004 0.1225 -0.3365 -1.4443 -0.0941 2.0604 3.1415 -0.0915 -1.7248 4.0587 0.0190 -2.9246 -10.1076 -3.4494 -14.8273 7.0337 -3.8429 18.2595 3.5988 -1.8195 8.4604 0.0000 -0.0000 0.0000 -57.9426 -44.4814 30.2694 90.5076 -59.9990 -60.4396 -0.0000 -0.0000 18.1024 18.4809 33.6000 10.4788 -7.1250 0.0000 -0.0000 -17.7980 64.1434 -8.3833 0.0000 -0.0000 0.0000 47.7100 44.3334 30.4011 -102.2624 59.4241 -70.5990 0.0000 0.0000 8.9255 -13.6408 39.1727 -8.7151 7.1250 -0.0000 -0.0000 11.0189 9.3475 12.8834
7.5068 17.5148 -15.5225 -0.9113 -3.1619 -3.1582 0.0000 0.0000 0.0000 -15.3861 0.9066 2.0519 0.9886 6.3284 17.7402 0.7792 -0.1258 -16.6429 0.3448 -3.7733 -10.4396 0.0000 0.0000 0.0000 19.2413 -3.0624 0.0648 -1.0003 -6.3647 17.8465 -0.4683 -6.6394 -17.0433 -0.0005 0.1444 -0.3966 -1.2477 -0.0895 1.9730 3.2100 -0.0769 -1.7443 4.0176 0.0228 -2.8966 -10.1590 -3.4449 -14.7799 7.0058 -3.8318 18.4567 3.6024 -1.8235 8.5180 -0.0000 -0.0000 0.0000 -58.0715 -44.4874 30.5025 89.9258 -60.0000 -59.9357 -0.0000 -0.0000 18.5511 18.9504 33.1509 10.6343 -7.1250 0.0000 -0.0000 -16.8577 63.8441 -7.8101 -0.0000 -0.0000 0.0000 47.6475 44.3512 30.5038 -101.7087 59.4756 -70.1221 0.0000 0.0000 9.2781 -13.9813 39.1209 -8.9280 7.1250 -0.0000 -0.0000 10.8369 9.3578 12.6650
7.5100 17.5161 -15.5117 -0.9254 -3.1948 -3.1359 0.0000 0.0000 0.0000 -15.3694 1.0017 1.9671 1.0039 6.3757 17.8784 0.7902 -0.2305 -16.7258 0.3460 -3.7797 -10.4576 0.0000 0.0000 0.0000 19.2506 -3.0271 0.1511 -0.9884 -6.3277 17.7382 -0.4627 -6.6953 -17.0231 -0.0033 0.3734 -1.0259 -1.2111 -0.1677 1.8463 3.2435 -0.1804 -1.7211 4.0350 -0.0311 -2.7930 -10.2779 -3.3974 -14.8665 7.0533 -3.7461 18.6375 3.6515 -1.7871 8.5901 -0.0000 0.0000 0.0000 -57.8982 -44.3991 30.3013 89.5956 -59.9994 -59.6498 -0.0000 -0.0000 19.2310 18.8466 32.9248 10.5105 -7.1250 0.0000 -0.0000 -16.7786 63.6012 -7.6772 -0.0000 0.0000 0.0000 47.7031 44.5945 30.7299 -101.1650 59.5237 -69.6537 0.0000 0.0000 9.5912 -14.3465 39.1756 -9.1777 7.1250 -0.0000 -0.0000 10.6567 9.4773 12.4656
7.5168 17.5162 -15.5027 -0.9781 -3.1858 -3.1352 0.0000 0.0000 0.0000 -15.3290 1.0313 1.9085 1.0207 6.4271 18.0289 0.8017 -0.3493 -16.8085 0.3306 -3.6951 -10.2205 0.0000 0.0000 0.0000 19.2505 -3.1808 0.1866 -0.9788 -6.2978 17.6510 -0.4675 -6.6241 -17.0201 -0.0042 0.4175 -1.1471 -1.0392 -0.1588 1.7627 3.2057 -0.1650 -1.6997 3.8967 -0.0285 -2.7252 -10.2225 -3.4315 -14.8029 7.0246 -3.8043 18.5616 3.6243 -1.8139 8.5568 -0.0000 -0.0000 0.0000 -57.7796 -44.5516 30.4619 89.1762 -59.9974 -59.2866 -0.0000 -0.0000 20.0534 18.5880 33.0329 10.3884 -7.1250 0.0000 -0.0000 -17.1672 63.6352 -7.8739 -0.0000 -0.0000 0.0000 47.5395 44.6171 30.6180 -100.6496 59.5671 -69.2094 0.0000 0.0000 9.5544 -14.9031 39.2678 -9.5617 7.1250 -0.0000 -0.0000 10.3839 9.6701 12.1651
7.5213 17.5140 -15.5009 -1.1407 -3.2881 -3.1041 0.0000 0.0000 0.0000 -15.1517 1.0833 1.7853 1.0384 6.4811 18.1868 0.7988 -0.3908 -16.7642 0.3070 -3.5624 -9.8486 0.0000 0.0000 0.0000 19.4246 -3.1211 0.2342 -0.9684 -6.2653 17.5562 -0.4612 -6.6662 -16.9803 -0.0025 0.3233 -0.8883 -0.7773 -0.1024 1.7689 3.1896 -0.0808 -1.7546 3.7287 0.0096 -2.7916 -10.0926 -3.4327 -14.7587 6.9438 -3.8272 18.6245 3.5732 -1.8251 8.5679 0.0000 -0.0000 0.0000 -57.6945 -44.6740 30.7266 88.6126 -59.9927 -58.7985 -0.0000 -0.0000 20.8238 18.5413 33.1691 10.3981 -7.1250 0.0000 -0.0000 -17.3402 63.7519 -8.0029 0.0000 -0.0000 0.0000 47.2996 44.6427 30.5184 -100.0982 59.6112 -68.7338 0.0000 0.0000 9.2320 -15.4723 39.1437 -9.9116 7.1250 -0.0000 -0.0000 10.0733 9.6559 11.7885
